# xmcd
#
# Track frame offsets:
#	150
#	17707
#	32325
#
# Disc length: 806 seconds
#
# Revision: 0
# Processed by: cddbd v1.5.2PL0 Copyright (c) Steve Scherf et al.
# Submitted via: audiograbber 1.83.01
#
DISCID=15032403
DTITLE=Jo Hope - Oh Baby Don't [CDS)
DYEAR=2000
DGENRE=Pop
TTITLE0=Oh Baby Don't (Album Version)
TTITLE1=Oh Baby Don't (Jo Lo -Mix)
TTITLE2=Oh Baby Don't (Superolando 505-World)
EXTD=TR.
EXTT0=
EXTT1=
EXTT2=
PLAYORDER=
